<?xml version="1.0" encoding="UTF-8"?>
<svg version="1.1" xmlns="http://www.w3.org/2000/svg" width="666" height="375">
<path d="M0 0 C1.65 0.66 3.3 1.32 5 2 C5 2.66 5 3.32 5 4 C5.66 4 6.32 4 7 4 C7 4.66 7 5.32 7 6 C7.58523438 6.103125 8.17046875 6.20625 8.7734375 6.3125 C11.34921416 7.10782753 12.64768389 8.18818612 14.625 10 C17.12374312 12.27217224 17.12374312 12.27217224 20 14 C20 14.66 20 15.32 20 16 C20.66 16 21.32 16 22 16 C22 16.66 22 17.32 22 18 C23.11375 18.4021875 23.11375 18.4021875 24.25 18.8125 C26.89061949 19.95276751 28.85552844 21.09380306 31 23 C31 23.66 31 24.32 31 25 C31.81210937 25.37125 31.81210937 25.37125 32.640625 25.75 C35.5282849 27.27988604 38.09776018 29.09150997 40.75 31 C41.73484375 31.70125 42.7196875 32.4025 43.734375 33.125 C44.48203125 33.74375 45.2296875 34.3625 46 35 C46 35.66 46 36.32 46 37 C62.4571292 43.12358296 83.07496229 36.62650869 99.65893555 33.34960938 C106.10340136 32.10146447 112.43212385 31.27196175 119 31 C115.60608774 55.75559534 115.60608774 55.75559534 110 61 C109.34 61.33 108.68 61.66 108 62 C108.15726562 62.77085937 108.31453125 63.54171875 108.4765625 64.3359375 C110.24198767 76.69391366 109.89563791 89.57438937 106.875 101.6875 C106.68728027 102.45078613 106.49956055 103.21407227 106.30615234 104.00048828 C104.36849141 110.99449277 101.38045238 116.23909524 98 123 C73.58 123 49.16 123 24 123 C20 115 16 107 12 99 C9.58899883 97.51637807 9.58899883 97.51637807 7 98 C3.6415728 100.79218075 2.20136525 103.3595969 0.75 107.4375 C0.33363281 108.57832031 -0.08273437 109.71914062 -0.51171875 110.89453125 C-0.74294434 111.53729004 -0.97416992 112.18004883 -1.21240234 112.84228516 C-2.43704394 116.1973324 -3.7236004 119.52829463 -5.00292969 122.86279297 C-8.07867196 130.88098378 -11.11988329 138.90914581 -14 147 C-14.99 147 -15.98 147 -17 147 C-19.82939859 139.21915389 -21.63576665 131.2590618 -23.48828125 123.20654297 C-25.77885725 113.32952682 -28.36822885 103.57588644 -31.28491211 93.86547852 C-32.3171027 90.40762 -33.28703342 86.97542849 -34 83.4375 C-34.89304437 79.08390871 -36.19111914 74.86804948 -37.5 70.625 C-37.71398437 69.92173584 -37.92796875 69.21847168 -38.1484375 68.49389648 C-39.15101859 65.29778247 -40.12839207 62.80741189 -42 60 C-44.44125292 60.16869512 -44.44125292 60.16869512 -47 61 C-50.87740882 66.6354886 -51.87014779 74.42007928 -53.2890625 80.98828125 C-53.85844995 83.40035665 -54.50098827 85.53164079 -55.4375 87.8125 C-56.98984892 91.65294656 -57.96054289 95.60851577 -58.9375 99.625 C-64.18062247 121.18062247 -64.18062247 121.18062247 -66 123 C-68.55589888 123.09506052 -71.08467972 123.12556761 -73.64086914 123.11352539 C-74.84077736 123.11374443 -74.84077736 123.11374443 -76.06492615 123.1139679 C-78.72169665 123.11326855 -81.37839793 123.10547518 -84.03515625 123.09765625 C-85.87218691 123.09579215 -87.70921806 123.09436821 -89.54624939 123.09336853 C-94.39109662 123.08954275 -99.23591408 123.07971196 -104.08074951 123.06866455 C-109.02062578 123.05845172 -113.96050685 123.05387119 -118.90039062 123.04882812 C-128.60027353 123.03808974 -138.30013429 123.0210126 -148 123 C-150.37245174 118.29078924 -152.35804618 113.64651361 -154.125 108.6875 C-154.38925781 107.97916016 -154.65351563 107.27082031 -154.92578125 106.54101562 C-158.04658449 97.80435072 -158.16312014 89.1996616 -158.125 80 C-158.12886719 79.06671875 -158.13273438 78.1334375 -158.13671875 77.171875 C-158.12345051 67.67181391 -157.29942738 59.6709645 -153.75 50.8125 C-153.46253906 50.04486328 -153.17507812 49.27722656 -152.87890625 48.48632812 C-150.91613096 43.48510812 -148.59789982 39.98103724 -145 36 C-143.72147713 33.78412652 -143.72147713 33.78412652 -143 32 C-142.34 32 -141.68 32 -141 32 C-141 31.34 -141 30.68 -141 30 C-140.34 30 -139.68 30 -139 30 C-138.731875 29.360625 -138.46375 28.72125 -138.1875 28.0625 C-137 26 -137 26 -134 25 C-134 24.34 -134 23.68 -134 23 C-130.8432073 20.4212116 -127.40199099 18.24107418 -124 16 C-122.948125 15.29875 -121.89625 14.5975 -120.8125 13.875 C-105.9143956 5.6614866 -86.12152703 3.31058494 -69.5625 7.1875 C-54.36999153 11.72194465 -42.15894498 18.84105502 -31 30 C-29.17562116 31.93211944 -29.17562116 31.93211944 -27 33 C-23.86637282 33.08892339 -23.86637282 33.08892339 -21 32 C-20.72285156 31.39671875 -20.44570313 30.7934375 -20.16015625 30.171875 C-18.55188285 27.16110055 -16.45244467 26.08177556 -13.5625 24.3125 C-12.59441406 23.71050781 -11.62632812 23.10851562 -10.62890625 22.48828125 C-8 21 -8 21 -5 20 C-4.80664062 18.97519531 -4.61328125 17.95039063 -4.4140625 16.89453125 C-4.15130137 15.53380399 -3.88826602 14.17312967 -3.625 12.8125 C-3.49867188 12.13896484 -3.37234375 11.46542969 -3.2421875 10.77148438 C-2.50353223 6.9858761 -1.57376777 3.52387131 0 0 Z " fill="#1FA76A" transform="translate(307,119)"/>
<path d="M0 0 C0.99 0.33 1.98 0.66 3 1 C3.87890625 3.1875 3.87890625 3.1875 4.5625 6 C4.90474609 7.36125 4.90474609 7.36125 5.25390625 8.75 C5.66095043 10.52309299 6.06428255 12.2971189 6.44897461 14.07519531 C7.59521297 19.36129608 8.94665095 24.55147917 10.4375 29.75 C12.26441301 36.20166243 13.87018035 42.66370312 15.32421875 49.2109375 C15.90639755 51.61368699 16.59931465 53.86568176 17.4375 56.1875 C19.34135366 61.52028382 20.37394604 67.07255502 21.46655273 72.61791992 C22.35416369 76.90136751 23.23662804 80.48235777 26 84 C29.0957107 84.89207179 29.0957107 84.89207179 32 85 C32.4021875 83.700625 32.4021875 83.700625 32.8125 82.375 C34 79 34 79 35.46484375 76.140625 C36.89503248 73.21474271 37.85750725 70.49872461 38.75 67.375 C40.77107396 60.58606431 43.08561025 53.91989827 45.45019531 47.24365234 C47.14601889 42.4534765 48.79340891 37.65317415 50.36694336 32.82128906 C51 31 51 31 52 29 C55.8487359 30.28291197 56.15104596 31.45617143 58 35 C58.495 36.175625 58.99 37.35125 59.5 38.5625 C60.77836106 41.49207743 61.84750928 43.66813506 64 46 C67.40809554 47.13603185 70.07996451 47.15948953 73.67456055 47.20532227 C74.347995 47.21522186 75.02142944 47.22512146 75.715271 47.23532104 C77.93905127 47.26688389 80.1628529 47.29167275 82.38671875 47.31640625 C83.92943372 47.33698029 85.4721431 47.35797688 87.0148468 47.37937927 C91.07377602 47.4345535 95.13275573 47.48398325 99.19177246 47.53222656 C103.33427418 47.58247554 107.47670266 47.63814387 111.61914062 47.69335938 C119.74603181 47.80088409 127.8729843 47.90234166 136 48 C135.20537596 51.85788469 133.86979222 53.28339953 131 56 C128.89460026 58.62181854 126.84921393 61.28366785 124.8046875 63.953125 C124.20914063 64.62859375 123.61359375 65.3040625 123 66 C122.34 66 121.68 66 121 66 C120.75636719 66.57234375 120.51273438 67.1446875 120.26171875 67.734375 C118.77482702 70.40433538 117.01916092 72.13829007 114.8125 74.25 C111.97912703 77.01152833 109.28172938 79.77315571 106.75 82.8125 C103.46820035 86.63738706 99.87128751 90.06920882 96.1875 93.5 C95.61161133 94.04116455 95.03572266 94.5823291 94.44238281 95.13989258 C90.24356044 99 90.24356044 99 88 99 C88 99.66 88 100.32 88 101 C87.34 101 86.68 101 86 101 C86 101.66 86 102.32 86 103 C85.34 103 84.68 103 84 103 C84 103.66 84 104.32 84 105 C80.53846154 108 80.53846154 108 78 108 C77.62875 108.9590625 77.62875 108.9590625 77.25 109.9375 C75.67012061 112.544301 74.83219689 112.29195078 72 113 C71.690625 113.61875 71.38125 114.2375 71.0625 114.875 C69.62903287 117.74193426 67.74908472 118.40169493 65 120 C64.25363281 120.7528125 63.50726563 121.505625 62.73828125 122.28125 C59.82592232 125.17283604 56.77460262 127.60464861 53.5 130.0625 C49.62797969 132.9957126 45.78719392 135.9575148 42 139 C40.09572143 140.47059194 38.17573682 141.91320509 36.23828125 143.33984375 C34.65399051 144.5149285 33.09065497 145.71851268 31.54296875 146.94140625 C30.70378906 147.57949219 29.86460937 148.21757812 29 148.875 C27.8553125 149.76832031 27.8553125 149.76832031 26.6875 150.6796875 C23.0329918 152.47507089 19.93429107 152.85056053 16 152 C12.87423713 150.4432334 10.19589914 148.44183436 7.4375 146.3125 C6.36338867 145.51682617 6.36338867 145.51682617 5.26757812 144.70507812 C3.84934298 143.65333869 2.43691653 142.5937157 1.03076172 141.52587891 C-0.90059828 140.07468872 -2.8610639 138.6784783 -4.83984375 137.29296875 C-7.19520105 135.58395177 -8.99334295 134.03847581 -11 132 C-12.8293373 130.67990006 -14.69553985 129.43215674 -16.57421875 128.18359375 C-17.04472656 127.79300781 -17.51523438 127.40242188 -18 127 C-18 126.34 -18 125.68 -18 125 C-19.0828125 124.62875 -19.0828125 124.62875 -20.1875 124.25 C-23.27606582 122.87730408 -25.51011418 121.27646704 -28 119 C-28 118.34 -28 117.68 -28 117 C-28.57234375 116.7421875 -29.1446875 116.484375 -29.734375 116.21875 C-32.21128995 114.88634058 -34.1341166 113.34943882 -36.25 111.5 C-36.95640625 110.8915625 -37.6628125 110.283125 -38.390625 109.65625 C-40 108 -40 108 -40 106 C-40.66 105.814375 -41.32 105.62875 -42 105.4375 C-48.27899358 102.42881558 -53.19226854 96.94509522 -58 92 C-58.598125 91.443125 -59.19625 90.88625 -59.8125 90.3125 C-61 89 -61 89 -61 87 C-61.5775 86.773125 -62.155 86.54625 -62.75 86.3125 C-65.59591381 84.65238361 -66.99841921 82.60812043 -69 80 C-69.7425 79.2575 -70.485 78.515 -71.25 77.75 C-74.32287758 74.67712242 -77.17399739 71.45268021 -80.03515625 68.18359375 C-81.30173092 66.77600878 -82.60613 65.40114356 -83.953125 64.0703125 C-86.35525602 61.64067617 -88.51630761 59.0752296 -90.6875 56.4375 C-91.47511719 55.48746094 -92.26273438 54.53742188 -93.07421875 53.55859375 C-95 51 -95 51 -96 48 C-94.52541573 47.9845388 -94.52541573 47.9845388 -93.02104187 47.96876526 C-83.7654594 47.87109144 -74.50994506 47.76836304 -65.25447369 47.66066074 C-60.495926 47.60545054 -55.73737214 47.55203352 -50.97875977 47.50268555 C-46.38812173 47.45501402 -41.79755876 47.4026701 -37.20701027 47.34705925 C-35.45391517 47.32664836 -33.7007995 47.30793318 -31.94766808 47.29092598 C-29.49587937 47.26685401 -27.04423249 47.23680322 -24.5925293 47.20532227 C-23.86460678 47.1995668 -23.13668427 47.19381134 -22.38670349 47.18788147 C-19.32492 47.14307083 -16.92797286 46.97599095 -14 46 C-10.44048477 40.03138321 -9.10657126 32.81230251 -7.50463867 26.1171875 C-6.18141197 20.60320103 -4.59134828 15.20499615 -2.8828125 9.796875 C-1.8571232 6.54734608 -0.91586883 3.28186331 0 0 Z " fill="#20A86A" transform="translate(262,204)"/>
<path d="M0 0 C0 0.66 0 1.32 0 2 C0.6909375 2.22816406 1.381875 2.45632812 2.09375 2.69140625 C5.64502306 4.29043377 8.48730021 6.51545713 11.5 8.9375 C14.54868425 11.36725183 17.52752632 13.7250254 20.90625 15.69140625 C21.5971875 16.12324219 22.288125 16.55507812 23 17 C23 17.66 23 18.32 23 19 C23.55171875 19.2578125 24.1034375 19.515625 24.671875 19.78125 C27.34314175 21.17963125 29.76851909 22.78763305 32.25 24.5 C33.14203125 25.1084375 34.0340625 25.716875 34.953125 26.34375 C35.96632813 27.16359375 35.96632813 27.16359375 37 28 C37 28.66 37 29.32 37 30 C37.721875 30.2475 38.44375 30.495 39.1875 30.75 C42.31287967 32.13905763 44.34373173 33.83333276 47 36 C49.73902618 38.11850792 52.49582607 40.21373595 55.25 42.3125 C60.56745019 46.36927467 65.86936886 50.44245741 71.12890625 54.57421875 C73.06696762 56.0510296 75.05451295 57.43275444 77.0625 58.8125 C78.031875 59.534375 79.00125 60.25625 80 61 C80 61.66 80 62.32 80 63 C80.66 63 81.32 63 82 63 C83.125 68.625 83.125 68.625 82 72 C77.11239987 74.63930407 73.63797249 75.34518199 68 75 C67.94392578 75.86044922 67.94392578 75.86044922 67.88671875 76.73828125 C67.32550261 83.99007408 66.24269538 91.10875866 65.01635742 98.27270508 C64.30496242 102.54151447 63.63432319 106.65841902 64 111 C64.66 111.66 65.32 112.32 66 113 C66.265625 115.05859375 66.265625 115.05859375 66.25 117.4375 C66.25773437 118.61119141 66.25773437 118.61119141 66.265625 119.80859375 C66 122 66 122 64 125 C63.68038233 127.7442349 63.68038233 127.7442349 63.69140625 130.83984375 C63.66626953 131.98517578 63.64113281 133.13050781 63.61523438 134.31054688 C63.58013569 136.72455649 63.54887297 139.13862498 63.52148438 141.55273438 C63.49505859 142.69935547 63.46863281 143.84597656 63.44140625 145.02734375 C63.42795166 146.07656006 63.41449707 147.12577637 63.40063477 148.20678711 C62.94915361 151.35449941 62.19284394 152.73116478 60 155 C56.41087759 156.20821943 53.54993712 155.99173043 49.875 155.25 C49.02679688 155.09015625 48.17859375 154.9303125 47.3046875 154.765625 C44.62550801 153.87559249 43.53283198 153.3844053 42 151 C41.45846121 145.76092709 42.49543075 141.86732384 44.375 137 C48.09455845 127.67813837 48.09455845 127.67813837 48.875 117.8125 C48.8125 115.203125 48.8125 115.203125 49 113 C50.31129922 111.64499081 51.64691687 110.31328657 53 109 C56.28435651 99.06682423 56.10105671 87.37831474 57 77 C55.92250488 77.29221436 55.92250488 77.29221436 54.82324219 77.59033203 C47.33368516 79.55153743 39.91742029 80.85015239 32.25 81.875 C21.0459903 83.44515257 10.03311636 85.52977224 -1.015625 87.94921875 C-21.86452436 92.45251882 -21.86452436 92.45251882 -29.4375 88.8359375 C-31.41845801 87.32700464 -33.19258726 85.71080271 -35 84 C-36.32041059 83.06481476 -37.65329704 82.14690953 -39 81.25 C-39.99 80.5075 -40.98 79.765 -42 79 C-42 78.34 -42 77.68 -42 77 C-43.10021484 76.62488281 -43.10021484 76.62488281 -44.22265625 76.2421875 C-47.22561824 74.89909058 -49.05480933 73.37602683 -51.4375 71.125 C-54.04653925 68.71665608 -56.55090546 66.50903071 -59.5625 64.625 C-60.366875 64.08875 -61.17125 63.5525 -62 63 C-62 62.34 -62 61.68 -62 61 C-62.7425 60.731875 -63.485 60.46375 -64.25 60.1875 C-66.89061949 59.04723249 -68.85552844 57.90619694 -71 56 C-71 55.34 -71 54.68 -71 54 C-71.556875 53.731875 -72.11375 53.46375 -72.6875 53.1875 C-77.12381519 50.9093922 -80.52534698 48.58673861 -84 45 C-84.7425 44.46375 -85.485 43.9275 -86.25 43.375 C-86.8275 42.92125 -87.405 42.4675 -88 42 C-88 41.34 -88 40.68 -88 40 C-88.7425 39.731875 -89.485 39.46375 -90.25 39.1875 C-92.89061949 38.04723249 -94.85552844 36.90619694 -97 35 C-97 34.34 -97 33.68 -97 33 C-97.556875 32.731875 -98.11375 32.46375 -98.6875 32.1875 C-101.21225334 30.89100504 -103.63714484 29.57523677 -106 28 C-106 27.34 -106 26.68 -106 26 C-106.66 26 -107.32 26 -108 26 C-109.20194687 20.71143376 -109.20194687 20.71143376 -108.40234375 17.89453125 C-106.3202483 15.08167249 -104.33623021 15.0579341 -100.9375 14.4375 C-99.04064453 14.08171875 -99.04064453 14.08171875 -97.10546875 13.71875 C-96.43306152 13.60144531 -95.7606543 13.48414062 -95.06787109 13.36328125 C-93.01597475 13.00280643 -90.97122782 12.61404319 -88.92578125 12.21875 C-81.88648262 10.88564389 -74.87942109 9.82899854 -67.75 9.125 C-59.69851235 8.32461756 -51.77682709 6.97779261 -43.8125 5.5625 C-34.58203644 3.92616595 -25.35876488 2.40136997 -16.0625 1.1875 C-15.12833252 1.06383057 -14.19416504 0.94016113 -13.23168945 0.81274414 C-8.78976498 0.25240869 -4.48804312 -0.1404824 0 0 Z " fill="#054E34" transform="translate(388,62)"/>
<path d="M0 0 C2.475 0.99 2.475 0.99 5 2 C5 2.66 5 3.32 5 4 C5.66 4 6.32 4 7 4 C7 4.66 7 5.32 7 6 C7.87785156 6.1546875 7.87785156 6.1546875 8.7734375 6.3125 C11.34921416 7.10782753 12.64768389 8.18818612 14.625 10 C17.12374312 12.27217224 17.12374312 12.27217224 20 14 C20 14.66 20 15.32 20 16 C20.66 16 21.32 16 22 16 C22 16.66 22 17.32 22 18 C22.7425 18.268125 23.485 18.53625 24.25 18.8125 C26.89061949 19.95276751 28.85552844 21.09380306 31 23 C31 23.66 31 24.32 31 25 C31.54140625 25.2475 32.0828125 25.495 32.640625 25.75 C35.5282849 27.27988604 38.09776018 29.09150997 40.75 31 C41.73484375 31.70125 42.7196875 32.4025 43.734375 33.125 C44.48203125 33.74375 45.2296875 34.3625 46 35 C46 35.66 46 36.32 46 37 C62.4571292 43.12358296 83.07496229 36.62650869 99.65893555 33.34960938 C106.10340136 32.10146447 112.43212385 31.27196175 119 31 C115.53785901 56.25326371 115.53785901 56.25326371 110 61 C107.25 62.125 107.25 62.125 104 63 C102.03290637 63.75142977 100.0786844 64.53086231 98.125 65.31640625 C80.55238514 70.9693614 55.81986619 68.22157298 39 61 C37.9171875 60.60167969 36.834375 60.20335937 35.71875 59.79296875 C22.14249318 54.76253669 5.09667093 47.26902969 -2.5 34.25 C-7.14298843 23.13692122 -4.2782356 12.04180907 -1 1 C-0.67 0.67 -0.34 0.34 0 0 Z " fill="#044D32" transform="translate(307,119)"/>
<path d="M0 0 C0.33 0 0.66 0 1 0 C1.33 1.65 1.66 3.3 2 5 C2.61875 4.814375 3.2375 4.62875 3.875 4.4375 C6 4 6 4 8 5 C9.26439935 11.42736335 8.76547315 16.70987785 7.47265625 23.10546875 C6.97466288 26.15516372 6.78627868 28.91630667 7 32 C7.66 32.66 8.32 33.32 9 34 C9.265625 36.05859375 9.265625 36.05859375 9.25 38.4375 C9.25515625 39.21996094 9.2603125 40.00242188 9.265625 40.80859375 C9 43 9 43 7 46 C6.68038233 48.7442349 6.68038233 48.7442349 6.69140625 51.83984375 C6.66626953 52.98517578 6.64113281 54.13050781 6.61523438 55.31054688 C6.58013569 57.72455649 6.54887297 60.13862498 6.52148438 62.55273438 C6.49505859 63.69935547 6.46863281 64.84597656 6.44140625 66.02734375 C6.42795166 67.07656006 6.41449707 68.12577637 6.40063477 69.20678711 C5.94915361 72.35449941 5.19284394 73.73116478 3 76 C-0.58912241 77.20821943 -3.45006288 76.99173043 -7.125 76.25 C-7.97320312 76.09015625 -8.82140625 75.9303125 -9.6953125 75.765625 C-12.37449199 74.87559249 -13.46716802 74.3844053 -15 72 C-15.54153879 66.76092709 -14.50456925 62.86732384 -12.625 58 C-8.90544155 48.67813837 -8.90544155 48.67813837 -8.125 38.8125 C-8.1875 36.203125 -8.1875 36.203125 -8 34 C-6.68870078 32.64499081 -5.35308313 31.31328657 -4 30 C-1.00315526 20.60745002 -0.95279731 9.78137659 0 0 Z " fill="#15573E" transform="translate(445,141)"/>
<path d="M0 0 C23.76 0.33 47.52 0.66 72 1 C71.67 1.99 71.34 2.98 71 4 C49.55 4 28.1 4 6 4 C6 3.34 6 2.68 6 2 C3.03 1.505 3.03 1.505 0 1 C0 0.67 0 0.34 0 0 Z " fill="#51AC83" transform="translate(326,251)"/>
<path d="M0 0 C26.73 0 53.46 0 81 0 C81 0.66 81 1.32 81 2 C71.15991748 2.13069401 61.31983124 2.26110415 51.47974014 2.39115143 C46.91064521 2.45154581 42.34155161 2.51203814 37.77246094 2.57275391 C33.36342415 2.63133922 28.95438404 2.68966778 24.54534149 2.74781799 C22.86282988 2.77005358 21.1803195 2.79238184 19.49781036 2.81480408 C17.14209809 2.84618207 14.7863817 2.87723125 12.43066406 2.90820312 C11.38625153 2.92222923 11.38625153 2.92222923 10.32073975 2.9365387 C7.21330182 2.97707746 4.10781444 3 1 3 C0.67 2.01 0.34 1.02 0 0 Z " fill="#62AE8D" transform="translate(166,252)"/>
<path d="M0 0 C0.33 0 0.66 0 1 0 C1.33 1.65 1.66 3.3 2 5 C2.61875 4.814375 3.2375 4.62875 3.875 4.4375 C6 4 6 4 8 5 C9.44693096 12.35523236 8.49292109 18.7081292 7 26 C6.01 25.67 5.02 25.34 4 25 C3.855625 23.948125 3.71125 22.89625 3.5625 21.8125 C3.12473034 18.84539451 2.62195134 15.93205634 2 13 C1.01 12.67 0.02 12.34 -1 12 C-0.67 8.04 -0.34 4.08 0 0 Z " fill="#03472F" transform="translate(445,141)"/>
<path d="M0 0 C1.23514929 2.22326872 2.01002294 4.05136756 2.5 6.5625 C2.89071327 9.24360926 2.89071327 9.24360926 5 12 C5.1953125 14.26171875 5.1953125 14.26171875 5.125 16.6875 C5.10695313 17.49574219 5.08890625 18.30398437 5.0703125 19.13671875 C5.03550781 20.05904297 5.03550781 20.05904297 5 21 C3.68 21 2.36 21 1 21 C0.67 21.66 0.34 22.32 0 23 C-1.93264238 21.14788439 -2.92368988 19.6588107 -3.234375 16.9765625 C-3.26672674 12.23703227 -2.79439734 7.66708435 -2 3 C-1.34 3 -0.68 3 0 3 C0 2.01 0 1.02 0 0 Z " fill="#044831" transform="translate(446,150)"/>
<path d="M0 0 C1.4540625 0.495 1.4540625 0.495 2.9375 1 C7.62233361 2.34808477 13.51962957 3.24018522 18 1 C20.65250766 0.71425652 23.27776349 0.48794436 25.9375 0.3125 C26.66646484 0.25255859 27.39542969 0.19261719 28.14648438 0.13085938 C32.05361482 -0.13057098 33.65249378 -0.23167081 37 2 C9.28665724 7.63661209 9.28665724 7.63661209 2.125 3.0625 C1.42375 2.381875 0.7225 1.70125 0 1 C0 0.67 0 0.34 0 0 Z " fill="#42675B" transform="translate(355,147)"/>
<path d="M0 0 C0.99 0.33 1.98 0.66 3 1 C2.34 1 1.68 1 1 1 C1 1.66 1 2.32 1 3 C0.34 3 -0.32 3 -1 3 C-1 3.66 -1 4.32 -1 5 C-1.66 5 -2.32 5 -3 5 C-3 5.66 -3 6.32 -3 7 C-6.46153846 10 -6.46153846 10 -9 10 C-9.2475 10.639375 -9.495 11.27875 -9.75 11.9375 C-11.32987939 14.544301 -12.16780311 14.29195078 -15 15 C-16.28436734 16.9837767 -16.28436734 16.9837767 -17 19 C-17.99 18.67 -18.98 18.34 -20 18 C-19.375 16.125 -19.375 16.125 -18 14 C-14.875 12.75 -14.875 12.75 -12 12 C-11.95875 11.236875 -11.9175 10.47375 -11.875 9.6875 C-11 7 -11 7 -8.25 5.4375 C-6.64125 4.7259375 -6.64125 4.7259375 -5 4 C-3.6696875 2.88625 -3.6696875 2.88625 -2.3125 1.75 C-1.549375 1.1725 -0.78625 0.595 0 0 Z " fill="#4AA67A" transform="translate(349,302)"/>
<path d="M0 0 C0 0.66 0 1.32 0 2 C-1.19496094 2.12117188 -2.38992188 2.24234375 -3.62109375 2.3671875 C-15.40719045 3.59636064 -15.40719045 3.59636064 -27 6 C-27 4.68 -27 3.36 -27 2 C-17.86970027 0.09572892 -9.28145408 -0.22823248 0 0 Z " fill="#34604F" transform="translate(327,72)"/>
<path d="M0 0 C0.66 0.33 1.32 0.66 2 1 C1.125 7.875 1.125 7.875 0 9 C-4.30647636 9.25342236 -8.62445054 9.18522638 -12.9375 9.1875 C-14.15630859 9.19974609 -15.37511719 9.21199219 -16.63085938 9.22460938 C-18.37399414 9.22750977 -18.37399414 9.22750977 -20.15234375 9.23046875 C-21.7609729 9.23663208 -21.7609729 9.23663208 -23.40209961 9.24291992 C-26 9 -26 9 -28 7 C-19.42 6.67 -10.84 6.34 -2 6 C-2 5.34 -2 4.68 -2 4 C-1.34 4 -0.68 4 0 4 C0 2.68 0 1.36 0 0 Z " fill="#56A67C" transform="translate(241,233)"/>
<path d="M0 0 C0.99 0.33 1.98 0.66 3 1 C3.984375 3.3984375 3.984375 3.3984375 4.75 6.375 C5.01296875 7.35210937 5.2759375 8.32921875 5.546875 9.3359375 C6 12 6 12 5 15 C5 14.34 5 13.68 5 13 C4.34 13 3.68 13 3 13 C2.67 12.01 2.34 11.02 2 10 C0.68 11.32 -0.64 12.64 -2 14 C-3.21065165 10.36804504 -2.62784815 8.93468371 -1.5625 5.3125 C-1.27503906 4.31863281 -0.98757813 3.32476562 -0.69140625 2.30078125 C-0.46324219 1.54152344 -0.23507812 0.78226563 0 0 Z " fill="#48AD7B" transform="translate(262,204)"/>
<path d="M0 0 C0.66 0.33 1.32 0.66 2 1 C1.67 1.99 1.34 2.98 1 4 C0.01 4 -0.98 4 -2 4 C-2 4.66 -2 5.32 -2 6 C-2.66 6 -3.32 6 -4 6 C-4.33 6.99 -4.66 7.98 -5 9 C-6.9375 11.6875 -6.9375 11.6875 -9 14 C-9.66 14 -10.32 14 -11 14 C-11 14.99 -11 15.98 -11 17 C-12.32 16.67 -13.64 16.34 -15 16 C-14.67 15.01 -14.34 14.02 -14 13 C-13.34 13 -12.68 13 -12 13 C-12 12.34 -12 11.68 -12 11 C-11.34 11 -10.68 11 -10 11 C-9.731875 10.360625 -9.46375 9.72125 -9.1875 9.0625 C-8 7 -8 7 -5 6 C-5 5.34 -5 4.68 -5 4 C-3.37373596 2.61767557 -1.7074998 1.28062485 0 0 Z " fill="#40A57A" transform="translate(178,138)"/>
<path d="M0 0 C2.475 0.99 2.475 0.99 5 2 C5 2.66 5 3.32 5 4 C5.66 4 6.32 4 7 4 C7 4.66 7 5.32 7 6 C8.32 6.33 9.64 6.66 11 7 C8.31633121 8.3418344 6.84719317 7.73004953 4 7 C3.67 6.67 3.34 6.34 3 6 C2.01 6.495 2.01 6.495 1 7 C0.34786708 9.02463255 0.34786708 9.02463255 0 11 C-0.66 11 -1.32 11 -2 11 C-2.33 11.66 -2.66 12.32 -3 13 C-2.69240822 11.02006459 -2.3787932 9.04106401 -2.0625 7.0625 C-1.88847656 5.96035156 -1.71445312 4.85820313 -1.53515625 3.72265625 C-1 1 -1 1 0 0 Z " fill="#3E6457" transform="translate(307,119)"/>
<path d="M0 0 C0.66 1.32 1.32 2.64 2 4 C2.99 4 3.98 4 5 4 C6.75 5.1875 6.75 5.1875 8 7 C7.6875 9.6875 7.6875 9.6875 7 12 C6.401875 11.505 5.80375 11.01 5.1875 10.5 C3.02970006 8.71723582 3.02970006 8.71723582 0 9 C-0.33 9.66 -0.66 10.32 -1 11 C-2.25 3.375 -2.25 3.375 0 0 Z " fill="#053F2A" transform="translate(447,137)"/>
<path d="M0 0 C0.66 0 1.32 0 2 0 C3.125 5.625 3.125 5.625 2 9 C-2.0966411 11.12710211 -5.36233145 12.42160623 -10 12 C-8.68 11.67 -7.36 11.34 -6 11 C-6 10.34 -6 9.68 -6 9 C-7.98 9.33 -9.96 9.66 -12 10 C-11.67 9.34 -11.34 8.68 -11 8 C-8.49609375 7.5859375 -8.49609375 7.5859375 -5.4375 7.375 C-4.42558594 7.30023438 -3.41367187 7.22546875 -2.37109375 7.1484375 C-1.58863281 7.09945312 -0.80617188 7.05046875 0 7 C0 4.69 0 2.38 0 0 Z " fill="#506D63" transform="translate(468,125)"/>
<path d="M0 0 C3 1 3 1 4.75 3.4375 C5.36875 4.7059375 5.36875 4.7059375 6 6 C5.67 6.66 5.34 7.32 5 8 C2.525 7.01 2.525 7.01 0 6 C-0.33 7.98 -0.66 9.96 -1 12 C-1.66 12 -2.32 12 -3 12 C-3 12.66 -3 13.32 -3 14 C-2.01 14.33 -1.02 14.66 0 15 C-1.65 15.33 -3.3 15.66 -5 16 C-3.41078475 10.63904723 -1.81027062 5.29156027 0 0 Z " fill="#68B48F" transform="translate(314,233)"/>
<path d="M0 0 C0.33 0 0.66 0 1 0 C1 9.57 1 19.14 1 29 C0.01 29.33 -0.98 29.66 -2 30 C-1.835 28.7315625 -1.67 27.463125 -1.5 26.15625 C-0.91747044 20.92168859 -0.92241628 15.76017602 -1 10.5 C-1.02537309 8.71880888 -1.04645226 6.93754954 -1.0625 5.15625 C-1.07410156 4.38087891 -1.08570313 3.60550781 -1.09765625 2.80664062 C-1 1 -1 1 0 0 Z " fill="#133E2E" transform="translate(449,186)"/>
<path d="M0 0 C1.32 0.33 2.64 0.66 4 1 C3.55187982 3.1479894 3.09121652 5.29336561 2.625 7.4375 C2.36976563 8.63246094 2.11453125 9.82742187 1.8515625 11.05859375 C1.57054687 12.02925781 1.28953125 12.99992188 1 14 C0.01 14.495 0.01 14.495 -1 15 C-1.59732819 12.23735711 -2 9.83967231 -2 7 C-2.31088368 5.32900023 -2.64080332 3.66128463 -3 2 C-2.01 1.67 -1.02 1.34 0 1 C0 0.67 0 0.34 0 0 Z " fill="#155136" transform="translate(420,161)"/>
<path d="M0 0 C0.268125 0.639375 0.53625 1.27875 0.8125 1.9375 C1.88667752 4.33131686 1.88667752 4.33131686 5 5 C5.99 6.485 5.99 6.485 7 8 C7.99 8.33 8.98 8.66 10 9 C11.625 12.4375 11.625 12.4375 13 16 C13.33 16.66 13.66 17.32 14 18 C9.98918921 16.45597489 8.05393336 13.89612829 5.4375 10.5625 C1.92677799 6.09374898 1.92677799 6.09374898 -2 2 C-1.34 1.34 -0.68 0.68 0 0 Z " fill="#549F7C" transform="translate(179,265)"/>
<path d="M0 0 C0.33 0 0.66 0 1 0 C1.59720137 5.82271337 -0.471757 9.9209404 -3 15 C-4.9375 14.6875 -4.9375 14.6875 -7 14 C-7.33 13.01 -7.66 12.02 -8 11 C-7.34 10.01 -6.68 9.02 -6 8 C-5.34 8 -4.68 8 -4 8 C-2.68 5.36 -1.36 2.72 0 0 Z " fill="#31A36D" transform="translate(306,224)"/>
<path d="M0 0 C0.99 0.66 1.98 1.32 3 2 C1.35 5.3 -0.3 8.6 -2 12 C-3.32 12 -4.64 12 -6 12 C-6 11.34 -6 10.68 -6 10 C-5.01 10 -4.02 10 -3 10 C-3 9.01 -3 8.02 -3 7 C-4.32 6.34 -5.64 5.68 -7 5 C-6.34 4.01 -5.68 3.02 -5 2 C-4.34 2.66 -3.68 3.32 -3 4 C-3.33 4.66 -3.66 5.32 -4 6 C-2.62437146 4.71034824 -1.29233607 3.37310707 0 2 C0 1.34 0 0.68 0 0 Z " fill="#3DA573" transform="translate(407,230)"/>
<path d="M0 0 C2.78566115 2.78566115 2.49240714 5.12960447 3 9 C3.59078462 11.3631385 4.28657936 13.66949257 5 16 C4.01 16.66 3.02 17.32 2 18 C1.46635113 15.94077867 0.94857811 13.87743893 0.4375 11.8125 C0.00244141 10.08966797 0.00244141 10.08966797 -0.44140625 8.33203125 C-0.98068761 5.11519907 -0.88247476 3.10327217 0 0 Z " fill="#53AA81" transform="translate(287,246)"/>
<path d="M0 0 C1.62433191 2.50076998 2.07333427 3.58982529 1.5390625 6.578125 C1.23742187 7.45984375 0.93578125 8.3415625 0.625 9.25 C0.32851563 10.14203125 0.03203125 11.0340625 -0.2734375 11.953125 C-0.51320313 12.62859375 -0.75296875 13.3040625 -1 14 C-0.34 14.33 0.32 14.66 1 15 C0.34 15 -0.32 15 -1 15 C-1.66 16.32 -2.32 17.64 -3 19 C-3.11138159 13.54230189 -2.91657981 8.38490641 -2 3 C-1.34 3 -0.68 3 0 3 C0 2.01 0 1.02 0 0 Z " fill="#0C3B2B" transform="translate(446,150)"/>
<path d="M0 0 C2.03833424 1.2739589 4.03852126 2.61061923 6 4 C6 4.66 6 5.32 6 6 C6.5775 6.268125 7.155 6.53625 7.75 6.8125 C10.05550043 8.02929189 12.02056192 9.30333879 14 11 C14 11.66 14 12.32 14 13 C13.34 13 12.68 13 12 13 C11.67 12.34 11.34 11.68 11 11 C7.97065509 10.34227572 7.97065509 10.34227572 5 10 C5.33 9.01 5.66 8.02 6 7 C4.35 6.67 2.7 6.34 1 6 C0.67 4.02 0.34 2.04 0 0 Z " fill="#426D5F" transform="translate(332,138)"/>
<path d="M0 0 C3.375 0.75 3.375 0.75 7 2 C8.125 4 8.125 4 9 6 C9.825 6.309375 10.65 6.61875 11.5 6.9375 C14 8 14 8 15.15625 10.56640625 C15.4346875 11.36949219 15.713125 12.17257813 16 13 C14.49460339 12.05016642 12.99579653 11.08988109 11.5 10.125 C10.6646875 9.59132812 9.829375 9.05765625 8.96875 8.5078125 C8.3190625 8.01023438 7.669375 7.51265625 7 7 C7 6.34 7 5.68 7 5 C6.21625 4.731875 5.4325 4.46375 4.625 4.1875 C2 3 2 3 0 0 Z " fill="#537469" transform="translate(339,134)"/>
<path d="M0 0 C0.66 0 1.32 0 2 0 C2 1.32 2 2.64 2 4 C2.66 4 3.32 4 4 4 C3.34 5.32 2.68 6.64 2 8 C0.02 8 -1.96 8 -4 8 C-3.40312566 4.65750371 -2.26396123 2.53563658 0 0 Z " fill="#1A9D60" transform="translate(316,208)"/>
<path d="M0 0 C0 0.33 0 0.66 0 1 C-1.98 1.33 -3.96 1.66 -6 2 C-6 2.66 -6 3.32 -6 4 C-7.27875 4.144375 -8.5575 4.28875 -9.875 4.4375 C-12.25692894 4.70642746 -13.84452691 4.92226346 -16 6 C-16 5.34 -16 4.68 -16 4 C-17.65 4 -19.3 4 -21 4 C-14.99983999 -0.00010667 -7.08170088 -0.31474226 0 0 Z " fill="#608075" transform="translate(414,152)"/>
<path d="M0 0 C1.50539661 0.94983358 3.00420347 1.91011891 4.5 2.875 C5.75296875 3.67550781 5.75296875 3.67550781 7.03125 4.4921875 C7.6809375 4.98976562 8.330625 5.48734375 9 6 C9 6.66 9 7.32 9 8 C9.66 8 10.32 8 11 8 C11 8.66 11 9.32 11 10 C11.66 10.33 12.32 10.66 13 11 C11.68 11 10.36 11 9 11 C9 10.34 9 9.68 9 9 C7.68 8.67 6.36 8.34 5 8 C5 7.34 5 6.68 5 6 C2.03 5.505 2.03 5.505 -1 5 C-0.67 3.35 -0.34 1.7 0 0 Z " fill="#396254" transform="translate(318,127)"/>
<path d="M0 0 C1.32 0.33 2.64 0.66 4 1 C2.32598022 4.95677402 -0.13149285 7.84464213 -3 11 C-3.66 11 -4.32 11 -5 11 C-4.48847632 7.21472479 -3.79154158 5.55891312 -1 3 C-0.67 2.01 -0.34 1.02 0 0 Z " fill="#5BAE87" transform="translate(388,259)"/>
<path d="M0 0 C3.23356015 1.21258505 4.00856305 2.01284458 6 5 C4.35 5.66 2.7 6.32 1 7 C0.67 6.34 0.34 5.68 0 5 C-0.99 4.67 -1.98 4.34 -3 4 C-2.67 3.01 -2.34 2.02 -2 1 C-1.34 0.67 -0.68 0.34 0 0 Z " fill="#255947" transform="translate(452,112)"/>
<path d="M0 0 C0.66 0 1.32 0 2 0 C4.39073445 3.82517513 4.55966552 7.59665524 5 12 C4.01 11.67 3.02 11.34 2 11 C1.05078125 8.71484375 1.05078125 8.71484375 0.3125 5.9375 C0.06113281 5.01839844 -0.19023437 4.09929687 -0.44921875 3.15234375 C-0.63097656 2.44207031 -0.81273437 1.73179687 -1 1 C-0.67 0.67 -0.34 0.34 0 0 Z " fill="#56AD86" transform="translate(156,230)"/>
<path d="M0 0 C0.99 0.33 1.98 0.66 3 1 C3.33 3.31 3.66 5.62 4 8 C2.68 7.67 1.36 7.34 0 7 C0 7.99 0 8.98 0 10 C-0.66 10 -1.32 10 -2 10 C-1.34 6.7 -0.68 3.4 0 0 Z " fill="#64A989" transform="translate(262,204)"/>
<path d="M0 0 C0.763125 0.495 1.52625 0.99 2.3125 1.5 C4.92363751 3.24368308 4.92363751 3.24368308 8 3 C7.67 3.99 7.34 4.98 7 6 C5.68 5.67 4.36 5.34 3 5 C3.33 5.66 3.66 6.32 4 7 C3.34 7.66 2.68 8.32 2 9 C0.5 7.625 0.5 7.625 -1 6 C-1 5.34 -1 4.68 -1 4 C-0.34 4 0.32 4 1 4 C0.67 2.68 0.34 1.36 0 0 Z M-1 8 C-0.34 8 0.32 8 1 8 C0.67 8.66 0.34 9.32 0 10 C-0.33 9.34 -0.66 8.68 -1 8 Z " fill="#55BB8F" transform="translate(275,149)"/>
<path d="M0 0 C-3.63 2.31 -7.26 4.62 -11 7 C-12.32 6.01 -13.64 5.02 -15 4 C-14.67 3.34 -14.34 2.68 -14 2 C-12.68 2.66 -11.36 3.32 -10 4 C-9.4225 3.360625 -8.845 2.72125 -8.25 2.0625 C-5.45932054 -0.49562284 -3.5353388 -1.7676694 0 0 Z " fill="#2C9B67" transform="translate(292,150)"/>
<path d="M0 0 C1.15941038 3.47823115 0.70820884 5.45895578 0 9 C-0.33 8.34 -0.66 7.68 -1 7 C-1.66 7 -2.32 7 -3 7 C-3 5.35 -3 3.7 -3 2 C-4.423125 2.309375 -4.423125 2.309375 -5.875 2.625 C-6.90625 2.74875 -7.9375 2.8725 -9 3 C-9.66 2.34 -10.32 1.68 -11 1 C-5.555 0.505 -5.555 0.505 0 0 Z " fill="#3E5F55" transform="translate(425,150)"/>
<path d="M0 0 C1.45792884 -0.05399736 2.91642712 -0.09279177 4.375 -0.125 C5.18710937 -0.14820312 5.99921875 -0.17140625 6.8359375 -0.1953125 C9 0 9 0 11 2 C9.68 3.32 8.36 4.64 7 6 C4.525 5.01 4.525 5.01 2 4 C2.33 3.34 2.66 2.68 3 2 C2.01 1.34 1.02 0.68 0 0 Z " fill="#3A6E5C" transform="translate(359,65)"/>
<path d="M0 0 C0 0.33 0 0.66 0 1 C-2.64 1 -5.28 1 -8 1 C-8 1.66 -8 2.32 -8 3 C-10.31 3.33 -12.62 3.66 -15 4 C-15.66 3.01 -16.32 2.02 -17 1 C-14.91835982 0.63601378 -12.83459438 0.28416713 -10.75 -0.0625 C-9.00976562 -0.35833984 -9.00976562 -0.35833984 -7.234375 -0.66015625 C-4.37477376 -0.9606216 -2.66674071 -0.9439206 0 0 Z " fill="#3A6053" transform="translate(386,63)"/>
<path d="M0 0 C4.32001266 0.48000141 6.27322191 1.61503409 9 5 C10.25 7.75 10.25 7.75 11 10 C6.07019047 7.99155908 2.90596617 4.35894926 0 0 Z " fill="#62AF8A" transform="translate(202,293)"/>
<path d="M0 0 C0.33 0 0.66 0 1 0 C1 3.3 1 6.6 1 10 C-0.98 10.99 -0.98 10.99 -3 12 C-3.80528889 14.05000871 -3.80528889 14.05000871 -4 16 C-4.66 15.67 -5.32 15.34 -6 15 C-5.65066406 14.33613281 -5.30132812 13.67226563 -4.94140625 12.98828125 C-4.48636719 12.10527344 -4.03132813 11.22226562 -3.5625 10.3125 C-3.11003906 9.44238281 -2.65757812 8.57226562 -2.19140625 7.67578125 C-1.04008072 5.09001736 -0.43679247 2.78643472 0 0 Z " fill="#65B18E" transform="translate(300,272)"/>
<path d="M0 0 C0.33 0 0.66 0 1 0 C2.42857143 8.57142857 2.42857143 8.57142857 0 12 C-0.99 11.01 -1.98 10.02 -3 9 C-2.01 6.03 -1.02 3.06 0 0 Z " fill="#3DA172" transform="translate(156,164)"/>
<path d="M0 0 C1.48285242 0.95262034 2.96118201 1.91228405 4.4375 2.875 C5.67306641 3.67550781 5.67306641 3.67550781 6.93359375 4.4921875 C9 6 9 6 10 8 C8.081875 7.8453125 8.081875 7.8453125 6.125 7.6875 C5.04605469 7.60048828 5.04605469 7.60048828 3.9453125 7.51171875 C2 7 2 7 0 4 C0 2.68 0 1.36 0 0 Z " fill="#40695C" transform="translate(428,93)"/>
<path d="M0 0 C0.66 0 1.32 0 2 0 C3.20577428 4.94367454 2.6290678 8.20862412 1 13 C0.34 12.67 -0.32 12.34 -1 12 C-1.08923649 8.16283087 -0.85513054 4.74119613 0 1 C0 0.67 0 0.34 0 0 Z " fill="#3F9B72" transform="translate(412,208)"/>
<path d="M0 0 C3.44754086 1.53224038 6.09793334 3.60579501 9 6 C10.32901064 7.00573778 11.66073801 8.00795408 13 9 C12.67 9.66 12.34 10.32 12 11 C11.21625 10.525625 10.4325 10.05125 9.625 9.5625 C8.11051322 8.66101977 6.5764103 7.78820515 5 7 C5 6.34 5 5.68 5 5 C4.01 5 3.02 5 2 5 C1.34 3.35 0.68 1.7 0 0 Z " fill="#6FB693" transform="translate(262,138)"/>
<path d="M0 0 C1.32 0 2.64 0 4 0 C6.72919661 3.18406272 7.9379775 5.16269626 8.25 9.375 C8.1675 10.24125 8.085 11.1075 8 12 C5.47172718 8.86975746 3.79457998 5.58915997 2 2 C1.34 1.34 0.68 0.68 0 0 Z " fill="#57AA83" transform="translate(317,216)"/>
<path d="M0 0 C0.33 0 0.66 0 1 0 C2.33583899 4.84241633 3.25328119 8.93437617 3 14 C1 13 1 13 -0.1875 10.375 C-1.10714007 6.55495663 -0.76490479 3.82452397 0 0 Z " fill="#4CA27B" transform="translate(274,243)"/>
<path d="M0 0 C0.33 0 0.66 0 1 0 C2.23076923 6.4 2.23076923 6.4 1.0625 9.4375 C0.711875 9.953125 0.36125 10.46875 0 11 C-0.66 11 -1.32 11 -2 11 C-2 11.99 -2 12.98 -2 14 C-2.66 14 -3.32 14 -4 14 C-3.79503906 13.32453125 -3.59007812 12.6490625 -3.37890625 11.953125 C-3.10949219 11.06109375 -2.84007812 10.1690625 -2.5625 9.25 C-2.16224609 7.92742187 -2.16224609 7.92742187 -1.75390625 6.578125 C-1.11531506 4.39434165 -0.53224167 2.21164502 0 0 Z " fill="#5AAB84" transform="translate(253,236)"/>
<path d="M0 0 C2.4375 1.375 2.4375 1.375 3.25 4 C3.311875 4.78375 3.37375 5.5675 3.4375 6.375 C0.07158134 4.93246343 -2.07297079 3.04235273 -4.5625 0.375 C-2.5625 -0.625 -2.5625 -0.625 0 0 Z " fill="#51A980" transform="translate(274.5625,348.625)"/>
<path d="M0 0 C1.65 0 3.3 0 5 0 C5.33 0.66 5.66 1.32 6 2 C3.03 4.475 3.03 4.475 0 7 C-0.93423645 3.98968256 -1.04449911 3.13349732 0 0 Z " fill="#3C9E6F" transform="translate(391,254)"/>
<path d="M0 0 C-2.44288823 2.44288823 -3.44210005 2.35213404 -6.8125 2.625 C-8.09060547 2.73714844 -8.09060547 2.73714844 -9.39453125 2.8515625 C-11.93641952 2.99637772 -14.45463207 3.02741869 -17 3 C-11.72346191 -0.51769206 -6.13607598 -0.10579441 0 0 Z " fill="#073726" transform="translate(422,152)"/>
<path d="M0 0 C4.75481646 0.57634139 7.97048212 2.55068521 12 5 C11.34 5.66 10.68 6.32 10 7 C6.7 5.35 3.4 3.7 0 2 C0 1.34 0 0.68 0 0 Z " fill="#5AA983" transform="translate(248,131)"/>
<path d="M0 0 C0.33 0.66 0.66 1.32 1 2 C1.66 2.33 2.32 2.66 3 3 C0.69 5.31 -1.62 7.62 -4 10 C-4.33 9.01 -4.66 8.02 -5 7 C-4.01 6.67 -3.02 6.34 -2 6 C-0.77479736 2.99152582 -0.77479736 2.99152582 0 0 Z " fill="#5CAD88" transform="translate(380,269)"/>
<path d="M0 0 C1.9375 0.8125 1.9375 0.8125 4 2 C4.33 2.99 4.66 3.98 5 5 C4.01 6.485 4.01 6.485 3 8 C2.34 8 1.68 8 1 8 C0.67 5.36 0.34 2.72 0 0 Z " fill="#40A371" transform="translate(153,223)"/>
<path d="M0 0 C0.99 0 1.98 0 3 0 C4.2380014 3.57644848 3.74926071 6.33694766 3 10 C2.01 9.67 1.02 9.34 0 9 C0 6.03 0 3.06 0 0 Z " fill="#256251" transform="translate(449,157)"/>
<path d="M0 0 C3.3 0 6.6 0 10 0 C9.67 0.99 9.34 1.98 9 3 C6.69 3.33 4.38 3.66 2 4 C3.32 3.67 4.64 3.34 6 3 C6 2.34 6 1.68 6 1 C4.02 1.33 2.04 1.66 0 2 C0 1.34 0 0.68 0 0 Z " fill="#446E5F" transform="translate(456,133)"/>
<path d="M0 0 C0.66 0.66 1.32 1.32 2 2 C0.71034824 3.37562854 -0.62689293 4.70766393 -2 6 C-2.66 6 -3.32 6 -4 6 C-4 4.68 -4 3.36 -4 2 C-4.66 1.67 -5.32 1.34 -6 1 C-3.125 0.375 -3.125 0.375 0 0 Z " fill="#4BAD85" transform="translate(364,288)"/>
<path d="M0 0 C0.33 0 0.66 0 1 0 C3.42857143 7.42857143 3.42857143 7.42857143 2 11 C1.54625 10.21625 1.0925 9.4325 0.625 8.625 C-0.88428742 5.96301969 -0.88428742 5.96301969 -3 4 C-1 1 -1 1 0 0 Z " fill="#67B791" transform="translate(278,258)"/>
<path d="M0 0 C1.46726798 3.81489674 0.43336419 6.29011622 -1 10 C-2.74627478 7.38058783 -3.38722388 5.96175123 -4 3 C-2.68 2.01 -1.36 1.02 0 0 Z " fill="#5EB68D" transform="translate(247,217)"/>
<path d="M0 0 C2.475 0.99 2.475 0.99 5 2 C5 2.99 5 3.98 5 5 C5.66 5 6.32 5 7 5 C7 5.66 7 6.32 7 7 C5.02 6.34 3.04 5.68 1 5 C0.67 3.35 0.34 1.7 0 0 Z " fill="#104131" transform="translate(285,87)"/>
<path d="M0 0 C0.99 0.33 1.98 0.66 3 1 C2.34 2.65 1.68 4.3 1 6 C0.34 6 -0.32 6 -1 6 C-1.33 6.66 -1.66 7.32 -2 8 C-2.66 7.67 -3.32 7.34 -4 7 C-4 6.01 -4 5.02 -4 4 C-2.68 3.67 -1.36 3.34 0 3 C0 2.01 0 1.02 0 0 Z " fill="#035234" transform="translate(436,203)"/>
<path d="M0 0 C0.33 0.99 0.66 1.98 1 3 C0.34 3.66 -0.32 4.32 -1 5 C-1.6425235 7.06874034 -1.6425235 7.06874034 -2 9 C-3.32 8.67 -4.64 8.34 -6 8 C-5.67 7.01 -5.34 6.02 -5 5 C-4.34 5 -3.68 5 -3 5 C-3 4.34 -3 3.68 -3 3 C-2.34 3 -1.68 3 -1 3 C-0.67 2.01 -0.34 1.02 0 0 Z " fill="#56AC84" transform="translate(169,146)"/>
<path d="M0 0 C0.66 0.33 1.32 0.66 2 1 C2 4.3 2 7.6 2 11 C0 7 0 7 0 4 C-0.66 4 -1.32 4 -2 4 C-1.34 2.68 -0.68 1.36 0 0 Z " fill="#47A67C" transform="translate(300,139)"/>
<path d="M0 0 C5.875 2.75 5.875 2.75 7 5 C4.69 5.33 2.38 5.66 0 6 C0 4.02 0 2.04 0 0 Z " fill="#2B5948" transform="translate(458,117)"/>
<path d="M0 0 C2.31 0.66 4.62 1.32 7 2 C7 2.66 7 3.32 7 4 C7.66 4 8.32 4 9 4 C8.67 4.99 8.34 5.98 8 7 C6.66382648 6.02471263 5.3311249 5.04466681 4 4.0625 C3.2575 3.51722656 2.515 2.97195313 1.75 2.41015625 C1.1725 1.94480469 0.595 1.47945313 0 1 C0 0.67 0 0.34 0 0 Z " fill="#5FAD8D" transform="translate(257,340)"/>
<path d="M0 0 C0.66 0 1.32 0 2 0 C2.474375 1.11375 2.94875 2.2275 3.4375 3.375 C4.25306463 5.26710994 5.07856355 7.15712709 6 9 C2.66476748 7.61990379 0.81392049 6.15049348 -1 3 C-0.67 2.01 -0.34 1.02 0 0 Z " fill="#63B38F" transform="translate(187,274)"/>
<path d="M0 0 C1.125 1.5625 1.125 1.5625 2 4 C1.125 7.75 1.125 7.75 0 11 C-0.66 11 -1.32 11 -2 11 C-1 3.57142857 -1 3.57142857 0 0 Z " fill="#6DB492" transform="translate(152,173)"/>
<path d="M0 0 C1.258125 0.12375 2.51625 0.2475 3.8125 0.375 C4.87404297 0.47941406 4.87404297 0.47941406 5.95703125 0.5859375 C8 1 8 1 11 3 C6.99799622 4.60080151 3.95443764 3.29279692 0 2 C0 1.34 0 0.68 0 0 Z " fill="#68B592" transform="translate(232,126)"/>
<path d="M0 0 C-0.61875 0.0825 -1.2375 0.165 -1.875 0.25 C-4.18437567 0.81258459 -4.18437567 0.81258459 -5.25 3.0625 C-5.4975 3.701875 -5.745 4.34125 -6 5 C-6.99 4.67 -7.98 4.34 -9 4 C-8.1875 2.0625 -8.1875 2.0625 -7 0 C-3.86650268 -1.04449911 -3.01031744 -0.93423645 0 0 Z " fill="#66B192" transform="translate(338,316)"/>
<path d="M0 0 C1.32 0 2.64 0 4 0 C2.63016497 3.16115776 2.0109362 3.9927092 -1 6 C-1.33 5.01 -1.66 4.02 -2 3 C-1.34 2.01 -0.68 1.02 0 0 Z " fill="#54AF8B" transform="translate(367,283)"/>
<path d="M0 0 C0.99 0.33 1.98 0.66 3 1 C3.33 3.64 3.66 6.28 4 9 C3.34 9 2.68 9 2 9 C1.34 6.03 0.68 3.06 0 0 Z " fill="#6CB490" transform="translate(281,231)"/>
<path d="M0 0 C2.60691842 2.60691842 2.70416963 4.37607794 3 8 C2.01 9.485 2.01 9.485 1 11 C1 10.34 1 9.68 1 9 C0.34 8.67 -0.32 8.34 -1 8 C-0.67 7.34 -0.34 6.68 0 6 C0.039992 4.00039988 0.04346799 1.99952758 0 0 Z " fill="#2B9968" transform="translate(266,217)"/>
<path d="M0 0 C0.66 0 1.32 0 2 0 C2.66 4.29 3.32 8.58 4 13 C3.01 13 2.02 13 1 13 C-0.00496852 9.98509443 -0.10335303 7.95818308 -0.0625 4.8125 C-0.05347656 3.91144531 -0.04445313 3.01039063 -0.03515625 2.08203125 C-0.02355469 1.39496094 -0.01195312 0.70789063 0 0 Z " fill="#1F8759" transform="translate(301,140)"/>
<path d="M0 0 C1.875 0.125 1.875 0.125 4 1 C5.25 4.0625 5.25 4.0625 6 7 C4.68 6.34 3.36 5.68 2 5 C2 4.34 2 3.68 2 3 C1.34 3 0.68 3 0 3 C0 2.01 0 1.02 0 0 Z " fill="#537A6E" transform="translate(280,85)"/>
<path d="M0 0 C0.33 0.66 0.66 1.32 1 2 C0.67 2.99 0.34 3.98 0 5 C0.66 5.33 1.32 5.66 2 6 C0.02 6.99 0.02 6.99 -2 8 C-2 5.69 -2 3.38 -2 1 C-1.34 0.67 -0.68 0.34 0 0 Z " fill="#295243" transform="translate(432,205)"/>
<path d="M0 0 C0.66 0 1.32 0 2 0 C1.71890887 1.64767247 1.42481474 3.29313145 1.125 4.9375 C0.96257812 5.85402344 0.80015625 6.77054688 0.6328125 7.71484375 C0.42398438 8.46894531 0.21515625 9.22304687 0 10 C-0.99 10.495 -0.99 10.495 -2 11 C-1.85957123 9.35369672 -1.71250671 7.70795821 -1.5625 6.0625 C-1.48128906 5.14597656 -1.40007812 4.22945312 -1.31640625 3.28515625 C-1 1 -1 1 0 0 Z " fill="#82BDA0" transform="translate(253,193)"/>
<path d="M0 0 C0.33 0 0.66 0 1 0 C1.08131463 1.43655854 1.13933559 2.8744483 1.1875 4.3125 C1.23970703 5.51326172 1.23970703 5.51326172 1.29296875 6.73828125 C0.93801608 9.47851584 0.10633718 10.29171079 -2 12 C-1.835 11.236875 -1.67 10.47375 -1.5 9.6875 C-0.90854604 6.96403764 -0.90854604 6.96403764 -1 4 C-0.6937566 2.66018514 -0.36548445 1.32488113 0 0 Z " fill="#4A6D5F" transform="translate(453,175)"/>
<path d="M0 0 C1.32 0.33 2.64 0.66 4 1 C3.67 2.98 3.34 4.96 3 7 C2.67 6.01 2.34 5.02 2 4 C0.35 3.67 -1.3 3.34 -3 3 C-2.01 2.34 -1.02 1.68 0 1 C0 0.67 0 0.34 0 0 Z " fill="#3A6B59" transform="translate(420,161)"/>
<path d="M0 0 C0.33 0 0.66 0 1 0 C1.19573608 1.43640171 1.38127816 2.87419504 1.5625 4.3125 C1.66691406 5.11300781 1.77132813 5.91351563 1.87890625 6.73828125 C2 9 2 9 1 12 C0.34 12 -0.32 12 -1 12 C-0.67 8.04 -0.34 4.08 0 0 Z " fill="#77958A" transform="translate(445,141)"/>
<path d="M0 0 C2.97 0.33 5.94 0.66 9 1 C9 1.33 9 1.66 9 2 C5.7 2.33 2.4 2.66 -1 3 C-0.67 2.01 -0.34 1.02 0 0 Z " fill="#5A7C6F" transform="translate(383,147)"/>
<path d="M0 0 C0.99 0 1.98 0 3 0 C2.67 1.65 2.34 3.3 2 5 C1.01 5 0.02 5 -1 5 C-1.33 4.01 -1.66 3.02 -2 2 C-1.34 2 -0.68 2 0 2 C0 1.34 0 0.68 0 0 Z " fill="#289965" transform="translate(291,346)"/>
<path d="M0 0 C2.76276177 0.52268466 5.3260876 1.10869587 8 2 C7.67 2.99 7.34 3.98 7 5 C4.11562221 3.70700306 2.12780579 2.34058637 0 0 Z " fill="#55A581" transform="translate(244,330)"/>
<path d="M0 0 C0.66 0 1.32 0 2 0 C1.67 1.65 1.34 3.3 1 5 C0.01 5.33 -0.98 5.66 -2 6 C-1.125 1.125 -1.125 1.125 0 0 Z " fill="#229662" transform="translate(358,291)"/>
<path d="M0 0 C2 1 2 1 2.8125 3 C3.85955198 5.28474077 3.85955198 5.28474077 6.625 5.75 C7.40875 5.8325 8.1925 5.915 9 6 C9 6.33 9 6.66 9 7 C6.03 6.67 3.06 6.34 0 6 C0 4.02 0 2.04 0 0 Z " fill="#87C8AA" transform="translate(284,283)"/>
<path d="M0 0 C1.125 1.625 1.125 1.625 2 4 C1.125 7.25 1.125 7.25 0 10 C-0.66 9.34 -1.32 8.68 -2 8 C-1.63723355 5.17042171 -0.90305236 2.70915709 0 0 Z " fill="#61B28B" transform="translate(303,264)"/>
<path d="M0 0 C0.33 0 0.66 0 1 0 C1.36923077 5.41538462 1.36923077 5.41538462 -0.5 8.375 C-0.995 8.91125 -1.49 9.4475 -2 10 C-1.85950482 8.52031676 -1.71245174 7.04125484 -1.5625 5.5625 C-1.48128906 4.73878906 -1.40007812 3.91507813 -1.31640625 3.06640625 C-1 1 -1 1 0 0 Z " fill="#65AD89" transform="translate(306,224)"/>
<path d="M0 0 C0.33 0.66 0.66 1.32 1 2 C-3.25566547 3.16063604 -6.6835078 2.76173392 -11 2 C-11 1.67 -11 1.34 -11 1 C-7.27569643 0.30710631 -3.78916254 -0.11144596 0 0 Z " fill="#708C83" transform="translate(447,215)"/>
<path d="M0 0 C0.99 0.33 1.98 0.66 3 1 C3.6875 3.0625 3.6875 3.0625 4 5 C3.01 5.33 2.02 5.66 1 6 C1 5.34 1 4.68 1 4 C0.01 3.67 -0.98 3.34 -2 3 C-1.34 2.67 -0.68 2.34 0 2 C0 1.34 0 0.68 0 0 Z " fill="#346652" transform="translate(325,119)"/>
<path d="M0 0 C0.33 0 0.66 0 1 0 C1 2.97 1 5.94 1 9 C-0.65 9.33 -2.3 9.66 -4 10 C-4 9.34 -4 8.68 -4 8 C-3.01 7.34 -2.02 6.68 -1 6 C-0.26656572 2.93443402 -0.26656572 2.93443402 0 0 Z " fill="#4C7367" transform="translate(442,165)"/>
<path d="M0 0 C2.29013653 3.4352048 2.17842973 4.985331 2 9 C0.68 8.34 -0.64 7.68 -2 7 C-1.34 4.69 -0.68 2.38 0 0 Z " fill="#30604F" transform="translate(452,146)"/>
<path d="M0 0 C0.66 0.33 1.32 0.66 2 1 C1.67 1.99 1.34 2.98 1 4 C-0.98 4.33 -2.96 4.66 -5 5 C-3.35 3.35 -1.7 1.7 0 0 Z " fill="#61AF8A" transform="translate(291,145)"/>
<path d="M0 0 C2.97 1.98 2.97 1.98 6 4 C3 6 3 6 0.8125 5.625 C0.214375 5.41875 -0.38375 5.2125 -1 5 C-0.67 3.35 -0.34 1.7 0 0 Z " fill="#397365" transform="translate(318,127)"/>
<path d="M0 0 C2.3431213 0.25561323 4.67843403 0.59270772 7 1 C7.33 1.66 7.66 2.32 8 3 C7.34 3.66 6.68 4.32 6 5 C3.98079663 3.69593116 1.98075027 2.36176581 0 1 C0 0.67 0 0.34 0 0 Z " fill="#5C7C72" transform="translate(300,103)"/>
<path d="M0 0 C3.65316671 1.24976756 4.78065836 1.67098753 7 5 C5 5 3 5 1 5 C0.67 3.35 0.34 1.7 0 0 Z " fill="#4E7265" transform="translate(399,72)"/>
<path d="" fill="#FFFFFF" transform="translate(0,0)"/>
<path d="" fill="#FFFFFF" transform="translate(0,0)"/>
<path d="" fill="#FFFFFF" transform="translate(0,0)"/>
<path d="" fill="#FFFFFF" transform="translate(0,0)"/>
<path d="" fill="#FFFFFF" transform="translate(0,0)"/>
<path d="" fill="#FFFFFF" transform="translate(0,0)"/>
<path d="" fill="#FFFFFF" transform="translate(0,0)"/>
<path d="" fill="#FFFFFF" transform="translate(0,0)"/>
<path d="" fill="#FFFFFF" transform="translate(0,0)"/>
<path d="" fill="#FFFFFF" transform="translate(0,0)"/>
<path d="" fill="#FFFFFF" transform="translate(0,0)"/>
<path d="" fill="#FFFFFF" transform="translate(0,0)"/>
<path d="" fill="#FFFFFF" transform="translate(0,0)"/>
<path d="" fill="#FFFFFF" transform="translate(0,0)"/>
<path d="" fill="#FFFFFF" transform="translate(0,0)"/>
<path d="" fill="#FFFFFF" transform="translate(0,0)"/>
<path d="" fill="#FFFFFF" transform="translate(0,0)"/>
<path d="" fill="#FFFFFF" transform="translate(0,0)"/>
<path d="" fill="#FFFFFF" transform="translate(0,0)"/>
<path d="" fill="#FFFFFF" transform="translate(0,0)"/>
<path d="" fill="#FFFFFF" transform="translate(0,0)"/>
<path d="" fill="#FFFFFF" transform="translate(0,0)"/>
<path d="" fill="#FFFFFF" transform="translate(0,0)"/>
<path d="" fill="#FFFFFF" transform="translate(0,0)"/>
<path d="" fill="#FFFFFF" transform="translate(0,0)"/>
<path d="" fill="#FFFFFF" transform="translate(0,0)"/>
<path d="" fill="#FFFFFF" transform="translate(0,0)"/>
<path d="" fill="#FFFFFF" transform="translate(0,0)"/>
<path d="" fill="#FFFFFF" transform="translate(0,0)"/>
<path d="" fill="#FFFFFF" transform="translate(0,0)"/>
<path d="" fill="#FFFFFF" transform="translate(0,0)"/>
<path d="" fill="#FFFFFF" transform="translate(0,0)"/>
<path d="" fill="#FFFFFF" transform="translate(0,0)"/>
<path d="" fill="#FFFFFF" transform="translate(0,0)"/>
<path d="" fill="#FFFFFF" transform="translate(0,0)"/>
<path d="" fill="#FFFFFF" transform="translate(0,0)"/>
<path d="" fill="#FFFFFF" transform="translate(0,0)"/>
<path d="" fill="#FFFFFF" transform="translate(0,0)"/>
<path d="" fill="#FFFFFF" transform="translate(0,0)"/>
<path d="" fill="#FFFFFF" transform="translate(0,0)"/>
<path d="" fill="#FFFFFF" transform="translate(0,0)"/>
<path d="" fill="#FFFFFF" transform="translate(0,0)"/>
<path d="" fill="#FFFFFF" transform="translate(0,0)"/>
<path d="" fill="#FFFFFF" transform="translate(0,0)"/>
<path d="" fill="#FFFFFF" transform="translate(0,0)"/>
<path d="" fill="#FFFFFF" transform="translate(0,0)"/>
<path d="" fill="#FFFFFF" transform="translate(0,0)"/>
<path d="" fill="#FFFFFF" transform="translate(0,0)"/>
<path d="" fill="#FFFFFF" transform="translate(0,0)"/>
<path d="" fill="#FFFFFF" transform="translate(0,0)"/>
<path d="" fill="#FFFFFF" transform="translate(0,0)"/>
<path d="" fill="#FFFFFF" transform="translate(0,0)"/>
<path d="" fill="#FFFFFF" transform="translate(0,0)"/>
<path d="" fill="#FFFFFF" transform="translate(0,0)"/>
<path d="" fill="#FFFFFF" transform="translate(0,0)"/>
<path d="" fill="#FFFFFF" transform="translate(0,0)"/>
<path d="" fill="#FFFFFF" transform="translate(0,0)"/>
<path d="" fill="#FFFFFF" transform="translate(0,0)"/>
<path d="" fill="#FFFFFF" transform="translate(0,0)"/>
<path d="" fill="#FFFFFF" transform="translate(0,0)"/>
<path d="" fill="#FFFFFF" transform="translate(0,0)"/>
<path d="" fill="#FFFFFF" transform="translate(0,0)"/>
<path d="" fill="#FFFFFF" transform="translate(0,0)"/>
<path d="" fill="#FFFFFF" transform="translate(0,0)"/>
<path d="" fill="#FFFFFF" transform="translate(0,0)"/>
<path d="" fill="#FFFFFF" transform="translate(0,0)"/>
<path d="" fill="#FFFFFF" transform="translate(0,0)"/>
<path d="" fill="#FFFFFF" transform="translate(0,0)"/>
<path d="" fill="#FFFFFF" transform="translate(0,0)"/>
<path d="" fill="#FFFFFF" transform="translate(0,0)"/>
</svg>
